<svg width="40" height="40" fill="none" xmlns="http://www.w3.org/2000/svg"><g opacity=".5" fill="#48494D"><path d="M34.0866 17.312c-.1716 0-.3435-.0658-.4743-.1968l-6.8014-6.801c-.2617-.262-.2617-.68669 0-.94872.2621-.26188.6869-.26188.9489 0l6.8004 6.80062c.262.2619.262.6866 0 .9486-.13.131-.3.197-.4733.197M32.4738 18.9248c-.1716 0-.3434-.0656-.4743-.1966l-6.8007-6.8007c-.262-.2621-.262-.6867 0-.9487.2621-.2621.6869-.2621.9489 0l6.8004 6.8006c.262.2621.262.6867 0 .9488-.131.131-.3027.1966-.4744.1966M30.9287 20.4701c-.1719 0-.3435-.0655-.4746-.1967l-6.8004-6.8006c-.262-.2621-.262-.6867 0-.9488.2621-.2618.6866-.2618.9486 0l6.8007 6.8007c.262.2621.262.6868 0 .9486-.1314.1313-.3027.1966-.4744.1966"/><path d="M22.5466 18.2564c-.1718 0-.3434-.0658-.4743-.1968-.262-.2619-.262-.6865 0-.9486l2.8776-2.8777c.2621-.2619.6866-.2619.9486 0 .262.262.262.6867 0 .9487l-2.878 2.8777c-.1307.131-.3027.1966-.474.1966M26.3414 22.0514c-.1719 0-.3434-.0654-.4743-.1966-.262-.2621-.262-.6866 0-.9486l2.8776-2.8778c.262-.2618.6868-.2618.9489 0 .262.2621.262.6867 0 .9488l-2.8779 2.8776c-.1307.1313-.3027.1966-.4744.1966M32.1684 13.6347c-.5179.5181-1.3578.5181-1.8757 0-.5182-.5181-.5182-1.3577 0-1.8757.5179-.518 1.3577-.518 1.8757 0s.518 1.3577 0 1.8757zM5.91291 17.3044c-.17171 0-.34343-.0658-.47443-.1968-.26188-.2619-.26188-.6865 0-.9485l6.80062-6.8007c.2622-.26205.687-.26205.9489 0 .2621.26188.2621.6865 0 .9486l-6.80096 6.8006c-.131.1307-.30266.1967-.47433.1967M7.52587 18.9171c-.17171 0-.34326-.0658-.4743-.1968-.26204-.2619-.26204-.6867 0-.9486l6.80063-6.8006c.2621-.2619.6867-.2619.9488 0 .2619.262.2619.6867 0 .9487l-6.80069 6.8007c-.131.131-.30267.1966-.47434.1966M9.07125 20.4627c-.17155 0-.34326-.0657-.4743-.1966-.26204-.262-.26204-.6867 0-.9487l6.80065-6.8007c.2621-.262.6867-.262.9488 0 .262.2621.262.6867 0 .9486L9.54602 20.266c-.131.1306-.303.1966-.47467.1966"/><path d="M13.6582 22.0441c-.1718 0-.3435-.0658-.4745-.1966l-2.8779-2.8778c-.2621-.2619-.2621-.6867 0-.9486.2624-.262.687-.262.9491 0l2.8776 2.8778c.262.2617.262.6868 0 .9486-.131.131-.3027.1966-.4744.1966M17.4535 18.2488c-.1717 0-.3434-.0656-.4744-.1966l-2.8779-2.8778c-.2621-.2619-.2621-.6867 0-.9486.2623-.262.687-.262.949 0l2.8776 2.8776c.2621.2621.2621.6867 0 .9488-.131.131-.303.1966-.4743.1966M9.70761 11.7514c.51789.5179.51789 1.3576 0 1.8757-.51807.5179-1.35774.5179-1.87567 0-.51807-.5181-.51807-1.3578 0-1.8757.51767-.518 1.35733-.518 1.87567 0z"/><path d="M20.004 31.418c-1.9201 0-3.8403-.7308-5.302-2.1927-2.9233-2.9235-2.9233-7.6803 0-10.604 2.9237-2.924 7.6807-2.924 10.604 0 2.9238 2.9235 2.9238 7.6804 0 10.604-1.462 1.462-3.382 2.1927-5.302 2.1927zm0-13.648c-1.5768 0-3.1532.5999-4.353 1.8003-2.4004 2.4002-2.4004 6.306 0 8.7063 2.4002 2.4004 6.3057 2.4004 8.7063 0 2.4004-2.4 2.4004-6.306 0-8.7063-1.2-1.2003-2.7773-1.8003-4.3533-1.8003zm4.8273 10.981h.0013-.0013z"/><path d="M12.0902 26.5423h-1.2697c-.92609 0-1.67969-.7532-1.67969-1.6797v-1.8951c0-.9261.75356-1.6794 1.67969-1.6794h1.2697c.9263 0 1.6795.7533 1.6795 1.6794v1.8951c0 .9264-.7533 1.6797-1.6796 1.6797h.0001zm-1.2698-3.9127c-.1831 0-.3377.1546-.3377.3379v1.8952c0 .1833.1546.3376.3377.3376h1.2697c.1833 0 .3379-.1543.3379-.3376v-1.8952c0-.1832-.1546-.3379-.3379-.3379h-1.2697z"/></g></svg>