<svg width="53" height="40" fill="none" xmlns="http://www.w3.org/2000/svg"><g opacity=".5"><rect x="16.746" y="10.75" width="10.9495" height="19.9131" rx="1.25" stroke="#48494D" stroke-width="1.5"/><mask id="a" fill="#fff"><rect x="18.0969" y="13.0968" width="8.2583" height="7.22601" rx="1"/></mask><rect x="18.0969" y="13.0968" width="8.2583" height="7.22601" rx="1" stroke="#48494D" stroke-width="3" mask="url(#a)"/><path d="M27.9474 20.834v0c1.1832 0 2.1423.9591 2.1423 2.1423v2.6632c0 1.3455.5356 3.4903 2.4993 3.2677 1.9637-.2226 2.3208-2.2253 2.3208-3.6522 0-1.4268-.7141-4.6132-.5356-7.3043.1785-2.691 1.7852-4.9977 3.0349-5.9588" stroke="#48494D" stroke-width="1.5" stroke-linecap="round" stroke-linejoin="round"/><rect x="15.498" y="30.506" width="13.4454" height=".995959" rx=".497979" fill="#48494D" stroke="#48494D" stroke-width=".995959"/><path d="M35.4181 15.4778v0c.9146.2237 1.5258 1.0854 1.4346 2.0225l-.085.8733c-.0876.8997-.844 1.586-1.748 1.586v0" stroke="#48494D" stroke-width="1.5"/></g></svg>