<svg width="40" height="40" fill="none" xmlns="http://www.w3.org/2000/svg"><g opacity=".5" stroke="#48494D" stroke-width="1.5"><path d="M11.1944 20h17.6113"/><path d="M11.1944 20h17.6113" stroke-miterlimit="10" stroke-linecap="round" stroke-linejoin="round"/><path d="M20 14.5297v10.941"/><path d="M20 14.5297v10.941" stroke-miterlimit="10" stroke-linecap="round" stroke-linejoin="round"/><path d="M28.8059 14.5297v5.4706"/><path d="M28.8059 14.5297v5.4706" stroke-miterlimit="10" stroke-linecap="round" stroke-linejoin="round"/><path d="M11.1944 14.5297v10.9416"/><path d="M11.1944 14.5297v10.9416M11.1943 14.5295c1.4836 0 2.6862-1.2026 2.6862-2.6862 0-1.4835-1.2026-2.6862-2.6862-2.6862-1.48353 0-2.68618 1.2027-2.68618 2.6862 0 1.4836 1.20265 2.6862 2.68618 2.6862zM19.9999 14.5295c1.4836 0 2.6862-1.2026 2.6862-2.6862 0-1.4835-1.2026-2.6862-2.6862-2.6862-1.4835 0-2.6862 1.2027-2.6862 2.6862 0 1.4836 1.2027 2.6862 2.6862 2.6862zM28.8061 14.5295c1.4835 0 2.6862-1.2026 2.6862-2.6862 0-1.4835-1.2027-2.6862-2.6862-2.6862-1.4836 0-2.6862 1.2027-2.6862 2.6862 0 1.4836 1.2026 2.6862 2.6862 2.6862zM11.1943 30.8429c1.4836 0 2.6862-1.2027 2.6862-2.6862 0-1.4836-1.2026-2.6862-2.6862-2.6862-1.48353 0-2.68618 1.2026-2.68618 2.6862 0 1.4835 1.20265 2.6862 2.68618 2.6862zM19.9999 30.8429c1.4836 0 2.6862-1.2027 2.6862-2.6862 0-1.4836-1.2026-2.6862-2.6862-2.6862-1.4835 0-2.6862 1.2026-2.6862 2.6862 0 1.4835 1.2027 2.6862 2.6862 2.6862z" stroke-miterlimit="10" stroke-linecap="round" stroke-linejoin="round"/></g></svg>