<svg width="40" height="40" fill="none" xmlns="http://www.w3.org/2000/svg"><path d="M28.7616 10.4801c.6752 0 1.363.0492 2.0274.0974.6457.0462 1.3126.0946 1.949.0946.2364 0 .4531-.0063.6629-.0197.0036-.0003.0072-.0003.0105-.0003.0694 0 .1338.0363.168.0973.036.0639.0331.1427-.0086.2033-.415.6081-.3722 1.9995-.3265 3.4727.0609 1.9664.1235 3.9999-.8152 4.9715-.353.3654-.8267.5503-1.4076.5503-.5604 0-.8944-.9024-1.2806-1.9468-.3484-.9405-.7813-2.1111-1.2917-2.1111-1.7211 0-2.3355 3.0312-.92 5.5326l3.0834 5.28c.3214.5501.1368 1.2606-.4113 1.5831-.1768.1041-.378.1593-.5817.1593-.3412 0-.6618-.1495-.8818-.4096l-4.5428-4.8669c-1.6199-.3286-3.1485-.4955-4.5446-.4955-1.5741 0-3.3244.2102-5.2044.6249l-4.4359 4.7374c-.2201.2604-.54006.4096-.88057.4096-.27011 0-.53285-.0964-.74035-.2709-.43279-.3644-.53971-.9831-.25356-1.4715l2.91048-4.9841c.2145-2.7968-.0358-3.7063-.2845-3.9759-.0745-.0806-.1413-.0901-.1852-.0901-.2561 0-.4745.0968-.66818.2951-.69985.7192-.8521 2.5963-.83143 3.6116.00108.009.0018.0188.0018.0285 0 .1062-.08548.1926-.19165.1926H8.8855c-.00432 0-.00846-.0004-.01278-.0004-.19471-.0137-.38116-.0213-.56182-.0289-.76807-.0318-1.37471-.0571-1.69901-.471-.22368-.2857-.27011-.7115-.14486-1.3396.00521-.0307.01187-.0723.01925-.1188.07253-.4568.22297-1.4062.74378-2.2484.65452-1.0585 1.66624-1.5966 3.00334-1.5966.1076 0 .217.0034.3284.0104.4359.0269.7897.2185 1.1015.3872.2927.1586.5694.3088.8768.3088.1441 0 .2894-.0321.443-.0977 1.0684-.4541 2.2788-.6748 3.6992-.6748.5818 0 1.2077.0365 1.9139.1116.2071.0218.4076.0332.596.0332h.0007c1.8086-.0004 2.5396-1.0267 3.3869-2.2157.6518-.915 1.3903-1.9513 2.7271-2.6419.9479-.4893 2.0454-.7175 3.4548-.7175l-.0001.0007zM28.7617 9c-1.6524 0-2.9643.27992-4.1293.88092-1.6549.85508-2.5403 2.09828-3.2518 3.09718-.8451 1.1861-1.1881 1.5962-2.188 1.5966-.1367 0-.2848-.0085-.4409-.0251-.7592-.0806-1.4358-.1197-2.0693-.1197-1.5642 0-2.9202.241-4.14.7362-.0568-.0289-.1227-.0646-.1778-.0942-.3806-.2061-.9523-.5153-1.711-.5626-.1391-.0088-.2806-.0134-.4202-.0134-1.85575 0-3.32743.7941-4.25608 2.2965-.67663 1.0944-.86595 2.2857-.94674 2.7946l-.00954.0596-.00486.0304c-.08332.4197-.29441 1.5823.43678 2.516.74448.9502 1.88291.9972 2.79781 1.0348.0655.0029.13191.0058.19939.0087l-1.58633 2.7168c-.65127 1.1121-.40832 2.5229.57819 3.3532.47219.3973 1.07146.6166 1.68765.6166.75889 0 1.47603-.3269 1.97503-.8979l4.0995-4.378c1.6081-.3294 3.1017-.4962 4.4466-.4962 1.167 0 2.4418.1267 3.795.3778l4.1967 4.4948c.4992.5718 1.2169.8993 1.9774.8993.4657 0 .925-.1253 1.3274-.3626 1.2492-.7346 1.67-2.3527.9375-3.6071l-3.0785-5.2705c-.5334-.9463-.6345-1.8622-.5712-2.4986.0461.1217.0878.2354.1235.3306.5046 1.3647 1.0765 2.9114 2.6626 2.9114.9808 0 1.8338-.3457 2.4658-.9998 1.3731-1.4213 1.3004-3.7725 1.2306-6.0464-.0259-.8395-.0695-2.2353.0885-2.6204.338-.5155.3621-1.195.0569-1.7375-.2937-.52405-.8501-.85-1.4519-.85-.0313 0-.0677.00145-.1019.00343-.1789.01102-.3657.01662-.5715.01662-.5777 0-1.2119-.04551-1.8255-.08958-.6712-.04845-1.4138-.10245-2.1491-.10245" fill="#48494D" opacity=".5"/></svg>