<svg width="134" height="55" fill="none" xmlns="http://www.w3.org/2000/svg"><path d="M84.48 24l-.93-3.06h-4.68L77.94 24H75l4.54-12.9h3.33L87.42 24h-2.94zm-1.58-5.34a2488 2488 0 01-1.46-4.7l-.23-.87c-.19.75-.74 2.6-1.66 5.57h3.35zm15.81-7.51h2.76L97.1 24h-2.97l-4.36-12.85h2.75l2.42 7.65a26.97 26.97 0 01.68 2.83c.07-.54.29-1.49.66-2.83l2.44-7.65zM110.4 24h-2.73V13.42h-3.48v-2.27h9.7v2.27h-3.5V24zm19.47-6.44c0 2.12-.53 3.76-1.58 4.9-1.06 1.14-2.57 1.72-4.54 1.72-1.97 0-3.48-.58-4.53-1.72-1.06-1.14-1.59-2.78-1.59-4.92s.53-3.77 1.59-4.9c1.06-1.13 2.58-1.7 4.55-1.7 1.97 0 3.48.58 4.53 1.71 1.04 1.14 1.57 2.77 1.57 4.9zm-9.38 0c0 1.43.27 2.51.82 3.24.54.73 1.36 1.1 2.44 1.1 2.18 0 3.26-1.45 3.26-4.34 0-2.9-1.08-4.34-3.24-4.34-1.09 0-1.9.36-2.45 1.1-.55.72-.83 1.8-.83 3.24zM79.64 45l-2.9-8.35h-.05c.07 1.24.11 2.4.11 3.49V45h-1.48V35h2.3l2.78 7.96h.04L83.3 35h2.3v10h-1.56v-4.94a70.79 70.79 0 01.1-3.4h-.06l-3 8.34h-1.44zm19.3-5.01c0 1.63-.42 2.9-1.23 3.8a4.4 4.4 0 01-3.45 1.35c-1.51 0-2.67-.45-3.48-1.34-.81-.9-1.21-2.17-1.21-3.82s.4-2.92 1.21-3.8c.82-.89 1.98-1.33 3.49-1.33a4.4 4.4 0 013.45 1.35c.8.9 1.21 2.16 1.21 3.79zm-7.64 0c0 1.23.25 2.16.75 2.8.5.64 1.23.95 2.2.95.98 0 1.7-.31 2.2-.94.5-.63.75-1.57.75-2.81 0-1.23-.25-2.16-.74-2.79-.49-.63-1.22-.95-2.19-.95-.98 0-1.72.32-2.22.95-.5.63-.75 1.56-.75 2.79zM106.35 45h-1.63v-8.6h-2.94V35h7.51v1.4h-2.94V45zm15.17-5.01c0 1.63-.4 2.9-1.22 3.8a4.4 4.4 0 01-3.45 1.35c-1.51 0-2.67-.45-3.48-1.34-.81-.9-1.21-2.17-1.21-3.82s.4-2.92 1.21-3.8c.82-.89 1.98-1.33 3.49-1.33a4.4 4.4 0 013.45 1.35c.8.9 1.21 2.16 1.21 3.79zm-7.63 0c0 1.23.25 2.16.75 2.8.5.64 1.23.95 2.2.95.98 0 1.7-.31 2.2-.94.5-.63.74-1.57.74-2.81 0-1.23-.24-2.16-.73-2.79-.5-.63-1.22-.95-2.2-.95-.97 0-1.71.32-2.21.95-.5.63-.75 1.56-.75 2.79z" fill="#48494D"/><path d="M42.15 27.27l-6.78-.55a1.83 1.83 0 01-1.04-3.22l5.16-4.43a14.7 14.7 0 00-7.68-5.6l-2.62 6.3a1.83 1.83 0 01-3.38 0l-2.62-6.29c-3.1.97-5.8 2.93-7.68 5.6l5.17 4.43a1.83 1.83 0 01-1.05 3.21l-6.78.55-.01.24c0 3.17 1.03 6.26 2.95 8.8l5.8-3.54a1.83 1.83 0 012.74 1.99l-1.58 6.61a14.48 14.48 0 009.5 0l-1.57-6.61a1.83 1.83 0 012.73-2l5.8 3.54a14.57 14.57 0 002.96-8.8l-.02-.23zM27.5 30.25a2.75 2.75 0 110-5.5 2.75 2.75 0 010 5.5z" fill="#D12136"/><path d="M27.5.92a26.58 26.58 0 100 53.16 26.58 26.58 0 000-53.16zm0 41.25a14.67 14.67 0 110-29.34 14.67 14.67 0 010 29.34z" fill="#2B2733"/><path d="M44.87 7.38A26.58 26.58 0 017.38 44.87 26.58 26.58 0 1044.87 7.38z" fill="#1A1721"/><path d="M19.26 5.12l1.75-.57-.85-2.62-1.75.57.85 2.62z" fill="#555160"/><path d="M34.84 53.06l1.75-.56-.85-2.62-1.75.57.85 2.61z" fill="#3B3944"/><path d="M28.42.92h-1.84v2.75h1.84V.92z" fill="#555160"/><path d="M28.42 51.33h-1.84v2.75h1.84v-2.75z" fill="#3B3944"/><path d="M12.75 8.76l1.48-1.08-1.61-2.22-1.49 1.07 1.62 2.23z" fill="#555160"/><path d="M42.38 49.54l1.48-1.07-1.61-2.23-1.48 1.08 1.61 2.22z" fill="#3B3944"/><path d="M7.68 14.23l1.08-1.48-2.23-1.62-1.08 1.49 2.23 1.61z" fill="#555160"/><path d="M48.47 43.87l1.08-1.49-2.23-1.61-1.08 1.48 2.23 1.62z" fill="#3B3944"/><path d="M4.55 21l.56-1.74-2.61-.85-.57 1.75 2.62.85z" fill="#555160"/><path d="M52.5 36.6l.57-1.75-2.62-.85-.57 1.74 2.62.85z" fill="#3B3944"/><path d="M3.67 26.58H.92v1.84h2.75v-1.84z" fill="#555160"/><path d="M54.08 26.58h-2.75v1.84h2.75v-1.84z" fill="#3B3944"/><path d="M2.5 36.59l2.62-.85-.57-1.75-2.61.85.56 1.75zm4.03 7.28l2.22-1.62-1.07-1.48-2.23 1.61 1.08 1.48zM42.25 8.76l1.62-2.23-1.49-1.08-1.61 2.23 1.48 1.08zm-6.51-3.64l.85-2.62-1.74-.57L34 4.55l1.74.57z" fill="#555160"/><path d="M53.07 20.16l-.57-1.74-1.8.58c.13.6.25 1.2.34 1.82l2.03-.66zm-3.52-7.54l-1.08-1.49-.63.46c.3.54.6 1.08.87 1.64l.84-.61zM11.13 48.47l1.49 1.08.6-.84a26.4 26.4 0 01-1.63-.87l-.46.63zm7.28 4.03l1.74.57.66-2.03c-.61-.09-1.22-.2-1.82-.34l-.58 1.8z" fill="#3B3944"/><path d="M50.45 21l.6-.19c-.1-.6-.22-1.21-.35-1.81l-.82.26.57 1.75zm-3.13-6.77l1.4-1a26.4 26.4 0 00-.88-1.64l-1.6 1.16 1.08 1.48zM12.75 46.24l-1.16 1.6c.53.3 1.07.6 1.63.87l1.01-1.39-1.48-1.08zm6.51 3.64l-.26.82c.6.13 1.2.25 1.81.34l.2-.59-1.75-.57zM27.5 8.25a19.25 19.25 0 100 38.5 19.25 19.25 0 000-38.5zm0 33.92a14.67 14.67 0 110-29.34 14.67 14.67 0 010 29.34z" fill="#555160"/><path d="M40.63 13.45a19.23 19.23 0 01-27.18 27.18 19.23 19.23 0 1027.18-27.18z" fill="#3B3944"/><path d="M35.84 15.46a14.62 14.62 0 00-4.03-1.98l-.5 1.21c1.53.08 3.05.34 4.53.77zm-11.76.17l-.89-2.15c-3.1.97-5.8 2.93-7.68 5.6l1.08.92a20.14 20.14 0 017.5-4.37z" fill="#9C1928"/><path d="M27.5 7.33a20.17 20.17 0 100 40.34 20.17 20.17 0 000-40.34zm0 38.5a18.33 18.33 0 110-36.66 18.33 18.33 0 010 36.66z" fill="#000"/><path d="M27.5 11.92a15.58 15.58 0 100 31.16 15.58 15.58 0 000-31.16zm13.69 14.35l-5.74-.46a.92.92 0 01-.53-1.61l4.37-3.74a13.63 13.63 0 011.9 5.81zM30.56 14.11l-2.21 5.31a.92.92 0 01-1.7 0l-2.21-5.31c2.01-.48 4.1-.48 6.12 0zm-14.85 6.35l4.36 3.74a.92.92 0 01-.52 1.61l-5.74.46c.19-2.06.84-4.04 1.9-5.81zm1.45 16.07l4.9-2.99a.92.92 0 011.37 1l-1.33 5.6a13.81 13.81 0 01-4.94-3.6zm6.68 4.21l1.37-5.78a2.75 2.75 0 00-4.1-2.98l-5.08 3.1a13.66 13.66 0 01-2.25-6.97l5.92-.48a2.75 2.75 0 001.57-4.82l-4.51-3.87a13.8 13.8 0 015.91-4.3l2.29 5.48a2.75 2.75 0 005.08 0l2.28-5.48a13.8 13.8 0 015.92 4.3l-4.5 3.87a2.75 2.75 0 001.56 4.82l5.92.48c-.1 2.48-.88 4.89-2.25 6.96l-5.08-3.1a2.75 2.75 0 00-4.1 2.99l1.37 5.78c-2.4.68-4.93.68-7.32 0zm9.06-.6l-1.34-5.6a.92.92 0 011.37-1l4.9 3a13.8 13.8 0 01-4.93 3.6z" fill="#000"/><path d="M31.17 27.5a3.67 3.67 0 10-7.34 0 3.67 3.67 0 007.34 0zm-3.67 1.83a1.83 1.83 0 110-3.66 1.83 1.83 0 010 3.66z" fill="#000"/><path d="M27.5 55a27.5 27.5 0 110-55 27.5 27.5 0 010 55zm0-53.17a25.67 25.67 0 100 51.34 25.67 25.67 0 000-51.34z" fill="#000"/></svg>