<svg width="34" height="42" fill="none" xmlns="http://www.w3.org/2000/svg"><path d="M28.3137 29.2842L17 41 5.68632 29.2842c-2.23761-2.3171-3.76154-5.2694-4.37889-8.4834-.617342-3.2139-.30048-6.5453.91052-9.5728C3.42896 8.2005 5.47983 5.61286 8.111 3.7923 10.7422 1.97173 13.8355 1 17 1c3.1645 0 6.258.97173 8.8891 2.7923 2.6312 1.82056 4.682 4.4082 5.893 7.4357 1.211 3.0275 1.5278 6.3589.9105 9.5728-.6174 3.214-2.1413 6.1663-4.3789 8.4834zM17 21.2503c.943 0 1.8474-.3879 2.5142-1.0784.6668-.6905 1.0413-1.627 1.0413-2.6035 0-.9765-.3745-1.913-1.0413-2.6035-.6668-.6905-1.5712-1.0784-2.5142-1.0784-.943 0-1.8474.3879-2.5141 1.0784-.6668.6905-1.0414 1.627-1.0414 2.6035 0 .9765.3746 1.913 1.0414 2.6035.6667.6905 1.5711 1.0784 2.5141 1.0784z" fill="#D12136" stroke="#F6F7FF" stroke-width=".5"/></svg>